<svg xmlns="http://www.w3.org/2000/svg" x="0px" y="0px"
     width="52" height="52"
     viewBox="0 0 192 192"
     style=" fill:#000000;"><g fill="none" fill-rule="nonzero" stroke="none" stroke-width="1" stroke-linecap="butt" stroke-linejoin="miter" stroke-miterlimit="10" stroke-dasharray="" stroke-dashoffset="0" font-family="none" font-weight="none" font-size="none" text-anchor="none" style="mix-blend-mode: normal"><path d="M0,192v-192h192v192z" fill="none"></path><g fill="#e74c3c"><g id="surface1"><path d="M96,0c-12.23077,0 -22.15385,9.92308 -22.15385,22.15385c0,12.23077 9.92308,22.15385 22.15385,22.15385c12.23077,0 22.15385,-9.92308 22.15385,-22.15385c0,-12.23077 -9.92308,-22.15385 -22.15385,-22.15385zM87.69231,51.92308c-3.72115,0.17308 -6.80769,0.57692 -9.46154,0.92308c-0.17307,0.02884 -0.31731,-0.02884 -0.46154,0c-11.82692,0 -18.69231,9.54808 -18.69231,13.61538v44.30769c0,4.06731 3.31731,7.38462 7.38462,7.38462h7.38462v44.30769c0,4.06731 3.31731,7.38462 7.38462,7.38462h29.53846c4.06731,0 7.38462,-3.31731 7.38462,-7.38462v-44.30769h7.38462c4.06731,0 7.38462,-3.31731 7.38462,-7.38462v-44.30769c0,-3.69231 -5.76923,-11.71153 -15.69231,-13.15385c-0.75,-0.14423 -1.99038,-0.31731 -3,-0.46154c-0.08654,0 -0.14423,0 -0.23077,0c-4.52884,-0.60577 -11.16346,-0.92308 -18,-0.92308c-2.82692,0 -5.625,-0.11538 -8.30769,0zM132,135.69231c-4.06731,-0.05769 -7.4423,3.20192 -7.5,7.26923c-0.05769,4.06731 3.20192,7.44231 7.26923,7.5c10.52884,1.84615 19.06731,4.61538 24.46154,7.38462c2.71154,1.38462 4.67308,2.74039 5.53846,3.69231c0.86539,0.95192 0.69231,1.09616 0.69231,0.92308c0,-0.25961 -0.05769,0.63462 -2.76923,2.53846c-2.71153,1.90385 -7.4423,4.15385 -13.61538,6c-12.375,3.72115 -30.28846,6.23077 -50.07692,6.23077c-19.78846,0 -37.70192,-2.50962 -50.07692,-6.23077c-6.17307,-1.84615 -10.90384,-4.09615 -13.61538,-6c-2.71153,-1.90384 -2.76923,-2.79808 -2.76923,-2.53846c0,0.17308 -0.17307,0.02884 0.69231,-0.92308c0.86539,-0.92308 2.625,-2.30769 5.30769,-3.69231c5.36539,-2.74039 13.99038,-5.30769 24.46154,-7.15385c4.06731,-0.57692 6.92308,-4.35577 6.34615,-8.42308c-0.57692,-4.06731 -4.35577,-6.92308 -8.42308,-6.34615c-0.14423,0.0577 -0.31731,0.14423 -0.46154,0.23077c-11.45192,2.01923 -21.14423,4.73077 -28.61538,8.53846c-3.72115,1.90385 -6.86538,4.125 -9.46154,6.92308c-2.59615,2.79808 -4.61538,6.57692 -4.61538,10.84615c0,6.375 4.24039,11.16346 9,14.53846c4.75961,3.375 10.81731,6.14423 18,8.30769c14.36539,4.29808 33.23077,6.69231 54.23077,6.69231c21,0 39.86539,-2.39423 54.23077,-6.69231c7.18269,-2.16346 13.24039,-4.93269 18,-8.30769c4.75961,-3.375 9,-8.16346 9,-14.53846c0,-4.26923 -2.01923,-8.01923 -4.61538,-10.84615c-2.59615,-2.82692 -5.71153,-5.01923 -9.46154,-6.92308c-7.5,-3.83654 -17.33654,-6.75 -28.84615,-8.76923c-0.75,-0.20192 -1.52884,-0.28846 -2.30769,-0.23077z"></path></g></g></g></svg>